<?xml version="1.0" standalone="no"?>
<!DOCTYPE svg PUBLIC "-//W3C//DTD SVG 20010904//EN"
 "http://www.w3.org/TR/2001/REC-SVG-20010904/DTD/svg10.dtd">
<svg version="1.0" xmlns="http://www.w3.org/2000/svg"
 width="524.000000pt" height="524.000000pt" viewBox="0 0 524.000000 524.000000"
 preserveAspectRatio="xMidYMid meet">
<metadata>
Created by potrace 1.14, written by Peter Selinger 2001-2017
</metadata>
<g transform="translate(0.000000,524.000000) scale(0.100000,-0.100000)"
fill="#000000" stroke="none">
<path d="M1417 4504 c-1 -1 -29 -5 -62 -9 -33 -4 -69 -8 -80 -10 -11 -2 -26
-4 -33 -4 -7 -1 -11 -5 -8 -10 3 -4 -6 -6 -19 -3 -16 3 -25 0 -25 -9 0 -7 -3
-10 -6 -6 -12 12 -229 -79 -262 -110 -6 -6 -21 -15 -32 -18 -11 -3 -20 -11
-20 -17 0 -6 -3 -9 -6 -6 -3 4 -14 -1 -23 -10 -10 -9 -42 -37 -71 -62 -30 -25
-63 -56 -74 -69 -12 -14 -28 -32 -36 -41 -48 -51 -140 -188 -140 -207 0 -7 -4
-13 -10 -13 -5 0 -10 -4 -10 -10 0 -5 -11 -34 -25 -64 -14 -30 -25 -61 -25
-70 0 -8 -4 -17 -9 -20 -7 -4 -18 -48 -37 -138 -1 -5 -2 -9 -4 -10 -3 -5 -9
-43 -13 -84 -2 -22 -6 -45 -9 -50 -6 -13 -2 -229 6 -290 7 -54 10 -67 26 -129
6 -22 13 -51 16 -64 3 -13 10 -34 16 -45 6 -12 11 -23 11 -26 -2 -26 112 -254
177 -355 11 -16 25 -40 31 -52 7 -13 16 -23 21 -23 4 0 8 -7 8 -15 0 -8 5 -15
10 -15 6 0 10 -6 10 -14 0 -8 7 -16 15 -20 8 -3 15 -12 15 -20 0 -8 3 -16 8
-18 12 -5 92 -114 92 -125 0 -5 9 -18 20 -28 10 -9 18 -20 17 -24 -2 -7 10
-25 110 -158 73 -97 125 -160 201 -240 23 -25 42 -50 42 -56 0 -6 3 -8 6 -5 3
3 26 -17 52 -45 26 -28 62 -65 80 -81 18 -17 50 -47 71 -66 21 -19 68 -62 106
-95 37 -33 78 -69 91 -80 12 -12 37 -32 55 -45 18 -14 37 -29 43 -35 6 -5 27
-22 46 -36 19 -15 49 -39 65 -53 17 -14 36 -26 43 -26 7 0 11 -4 7 -9 -3 -5 4
-12 15 -16 11 -3 20 -10 20 -15 0 -5 8 -11 18 -14 9 -3 31 -18 47 -32 17 -14
42 -33 58 -42 15 -9 27 -20 27 -24 0 -4 7 -8 15 -8 8 0 15 -4 15 -10 0 -5 7
-10 15 -10 8 0 15 -4 15 -10 0 -5 6 -10 14 -10 8 0 16 -4 18 -8 8 -21 260
-179 328 -206 67 -26 87 -30 180 -30 102 0 141 8 225 45 17 8 33 18 37 24 4 5
8 6 8 2 0 -4 6 -3 13 3 22 18 112 80 126 87 13 6 145 97 176 121 6 4 26 19 45
32 19 13 40 29 47 35 6 5 36 28 67 50 31 22 56 43 56 47 0 4 5 8 11 8 9 0 163
121 230 180 10 8 36 31 58 50 132 112 328 303 431 420 36 40 80 90 98 110 17
21 32 41 32 45 0 4 8 15 18 24 9 9 26 30 38 46 11 17 41 60 66 96 25 36 54 81
63 100 10 19 21 36 24 39 3 3 17 28 30 55 14 28 29 53 34 56 5 3 7 8 6 10 -2
2 12 39 30 83 18 43 34 87 36 97 2 11 7 24 10 29 8 13 16 47 20 82 2 14 5 30
8 35 13 20 21 107 21 223 0 132 -6 199 -27 285 -24 98 -31 121 -38 131 -5 6
-7 13 -4 16 3 2 -26 65 -63 139 -38 74 -69 137 -70 141 -2 5 -5 22 -9 38 -3
17 -10 33 -14 36 -5 3 -9 11 -9 19 0 18 -57 140 -89 190 -14 22 -24 44 -23 48
1 4 -5 10 -13 13 -8 4 -15 11 -15 16 0 21 -149 188 -168 188 -7 0 -12 7 -12
15 0 8 -6 15 -14 15 -8 0 -16 3 -18 8 -8 19 -92 75 -188 125 -45 24 -173 77
-183 76 -1 0 -9 2 -17 5 -15 4 -62 16 -90 22 -110 24 -403 20 -434 -5 -7 -6
-15 -8 -18 -6 -7 7 -130 -28 -183 -51 -22 -10 -42 -19 -45 -20 -35 -12 -70
-30 -70 -36 0 -4 -9 -8 -20 -8 -11 0 -20 -4 -20 -10 0 -5 -5 -10 -10 -10 -6 0
-16 -5 -23 -10 -7 -6 -31 -23 -53 -38 -94 -61 -229 -191 -305 -291 l-16 -21
-26 30 c-15 16 -27 32 -27 35 0 3 -40 45 -88 93 -145 144 -315 253 -482 306
-123 40 -140 44 -195 52 -46 6 -243 13 -248 8z"/>
</g>
</svg>
